<?xml version='1.0' encoding='iso-8859-1'?>
<svg version="1.1" xmlns="http://www.w3.org/2000/svg" viewBox="0 0 276.777 276.777" xmlns:xlink="http://www.w3.org/1999/xlink" enable-background="new 0 0 276.777 276.777">
  <path d="M190.886,82.273c-3.23-2.586-7.525-7.643-7.525-21.639V43h8.027V0h-106v43h8.027v17.635c0,11.66-1.891,17.93-6.524,21.639  c-21.813,17.459-31.121,36.748-31.121,64.5v100.088c0,16.496,13.42,29.916,29.916,29.916h105.405  c16.496,0,29.916-13.42,29.916-29.916V146.773C221.007,121.103,210.029,97.594,190.886,82.273z M191.007,246.777H85.77V146.773  c0-18.589,5.199-29.339,19.867-41.078c15.758-12.612,17.778-30.706,17.778-45.061V43h29.945v17.635  c0,19.927,6.318,35.087,18.779,45.061c11.99,9.597,18.867,24.568,18.867,41.078V246.777z"/>
</svg>
