<?xml version="1.0" encoding="iso-8859-1"?>
<!-- Generator: Adobe Illustrator 18.0.0, SVG Export Plug-In . SVG Version: 6.00 Build 0)  -->
<!DOCTYPE svg PUBLIC "-//W3C//DTD SVG 1.1//EN" "http://www.w3.org/Graphics/SVG/1.1/DTD/svg11.dtd">
<svg version="1.1" id="Capa_1" xmlns="http://www.w3.org/2000/svg" xmlns:xlink="http://www.w3.org/1999/xlink" x="0px" y="0px"
	 viewBox="0 0 297 297" style="enable-background:new 0 0 297 297;" xml:space="preserve">
<g>
	<path d="M102.057,177.225c3.02,2.778,7.445,3.398,11.114,1.564l35.322-17.671l35.336,17.679c1.403,0.702,2.916,1.045,4.42,1.045
		c0.032,0,0.064,0,0.096,0c5.425-0.04,9.81-4.449,9.81-9.884c0-1.526-0.346-2.971-0.963-4.261l-39.533-98.701
		c-1.502-3.75-5.136-6.209-9.176-6.209c-4.04,0.002-7.673,2.461-9.175,6.211l-39.735,99.279
		C98.048,170.088,99.036,174.444,102.057,177.225z M148.487,97.261l20.913,52.214l-16.484-8.247
		c-1.392-0.696-2.907-1.044-4.423-1.044c-1.516,0-3.03,0.348-4.423,1.044l-16.48,8.245L148.487,97.261z"/>
	<path d="M212.496,0H84.504c-19.619,0-35.58,15.961-35.58,35.581V261.42c0,19.619,15.961,35.58,35.58,35.58h127.992
		c19.619,0,35.58-15.961,35.58-35.58V35.581C248.076,15.961,232.115,0,212.496,0z M84.504,19.768h127.992
		c8.72,0,15.814,7.094,15.814,15.814v176.421H68.69V35.581C68.69,26.861,75.784,19.768,84.504,19.768z M212.496,277.232H84.504
		c-8.72,0-15.813-7.094-15.813-15.813v-29.651H228.31v29.651C228.31,270.139,221.216,277.232,212.496,277.232z"/>
	<path d="M156.654,244.617h-16.309c-5.458,0-9.883,4.426-9.883,9.884s4.425,9.884,9.883,9.884h16.309
		c5.458,0,9.883-4.426,9.883-9.884S162.112,244.617,156.654,244.617z"/>
</g>
<g>
</g>
<g>
</g>
<g>
</g>
<g>
</g>
<g>
</g>
<g>
</g>
<g>
</g>
<g>
</g>
<g>
</g>
<g>
</g>
<g>
</g>
<g>
</g>
<g>
</g>
<g>
</g>
<g>
</g>
</svg>
