<?xml version="1.0" encoding="iso-8859-1"?>
<!-- Generator: Adobe Illustrator 19.0.0, SVG Export Plug-In . SVG Version: 6.00 Build 0)  -->
<svg version="1.1" id="Layer_1" xmlns="http://www.w3.org/2000/svg" xmlns:xlink="http://www.w3.org/1999/xlink" x="0px" y="0px"
	 viewBox="0 0 512 512" style="enable-background:new 0 0 512 512;" xml:space="preserve">
<g>
	<g>
		<path d="M447.918,230.4c-1.453-36.754-27.809-67.197-62.628-74.904c3.288-8.543,5.11-17.809,5.11-27.496
			c0-67.104-63.448-110.175-66.15-111.976l-10.65-7.1l-10.65,7.1C300.248,17.825,236.8,60.896,236.8,128
			c0,19.425,7.264,37.178,19.2,50.717V230.4h-38.4V0H64v268.8h115.2V512H448V230.4H447.918z M342.19,153.6h-57.181
			c-6.094-6.799-9.809-15.772-9.809-25.6c0-32.566,23.971-58.71,38.397-71.494C328.044,69.306,352,95.442,352,128
			C352,137.828,348.285,146.801,342.19,153.6z M371.2,230.4v-38.272c20.392,1.562,36.707,17.879,38.264,38.272H371.2z"/>
	</g>
</g>
<g>
</g>
<g>
</g>
<g>
</g>
<g>
</g>
<g>
</g>
<g>
</g>
<g>
</g>
<g>
</g>
<g>
</g>
<g>
</g>
<g>
</g>
<g>
</g>
<g>
</g>
<g>
</g>
<g>
</g>
</svg>
