<?xml version="1.0" encoding="iso-8859-1"?>
<!-- Generator: Adobe Illustrator 19.0.0, SVG Export Plug-In . SVG Version: 6.00 Build 0)  -->
<svg version="1.1" id="Layer_1" xmlns="http://www.w3.org/2000/svg" xmlns:xlink="http://www.w3.org/1999/xlink" x="0px" y="0px"
	 viewBox="0 0 512 512" style="enable-background:new 0 0 512 512;" xml:space="preserve">
<g>
	<g>
		<path d="M355.553,0H156.446c-13.453,0-24.359,10.906-24.359,24.359v121.593c13.105-6.113,22.974-5.399,33.465-5.399V33.465
			h180.897v107.089c10.54,0,20.368-0.711,33.465,5.399V24.359C379.913,10.906,369.006,0,355.553,0z"/>
	</g>
</g>
<g>
	<g>
		<path d="M203.204,40.974c-14.58,0-26.398,11.819-26.398,26.398c0,8.228,3.765,23.777,9.666,35.766v37.415h33.465v-37.415
			c5.9-11.988,9.666-27.538,9.666-35.766C229.603,52.792,217.784,40.974,203.204,40.974z"/>
	</g>
</g>
<g>
	<g>
		<path d="M256.366,40.975c-14.58,0-26.398,11.819-26.398,26.398c0,8.228,3.765,23.777,9.666,35.766v37.414h33.465v-37.415
			c5.9-11.988,9.666-27.538,9.666-35.766C282.764,52.794,270.944,40.975,256.366,40.975z"/>
	</g>
</g>
<g>
	<g>
		<path d="M309.163,40.975c-14.58,0-26.398,11.819-26.398,26.398c0,8.228,3.766,23.778,9.666,35.766v37.414h33.465v-37.415
			c5.9-11.988,9.666-27.537,9.666-35.765C335.561,52.794,323.742,40.975,309.163,40.975z"/>
	</g>
</g>
<g>
	<g>
		<path d="M355.553,174.019H156.446c-13.453,0-24.359,10.906-24.359,24.359v115.244v174.019c0,13.453,10.906,24.359,24.359,24.359
			h199.108c13.453,0,24.359-10.906,24.359-24.359V313.622V198.378C379.913,184.925,369.006,174.019,355.553,174.019z
			 M266.674,440.233c5.373-7.397,17.714-27.326,3.629-37.997c-12.081-9.152-12.041-21.562-10.853-28.381
			c0.148-0.854-0.225-1.715-0.951-2.188c-0.726-0.473-1.664-0.469-2.386,0.011c-7.94,5.283-23.217,17.599-22.429,33.742
			c0.692,14.168,6.357,25.843,12.562,34.915c-58.778-6.577-55.047-56.749-24.238-86.395c25.7-24.729,23.286-45.023,20.713-53.23
			c-0.244-0.78-0.029-1.63,0.557-2.2c0.585-0.57,1.44-0.763,2.213-0.499c11.017,3.759,40.438,18.137,60.371,68.135
			C323.655,410.779,299.621,435.889,266.674,440.233z"/>
	</g>
</g>
<g>
</g>
<g>
</g>
<g>
</g>
<g>
</g>
<g>
</g>
<g>
</g>
<g>
</g>
<g>
</g>
<g>
</g>
<g>
</g>
<g>
</g>
<g>
</g>
<g>
</g>
<g>
</g>
<g>
</g>
</svg>
