<?xml version="1.0" encoding="iso-8859-1"?>
<!-- Generator: Adobe Illustrator 19.0.0, SVG Export Plug-In . SVG Version: 6.00 Build 0)  -->
<svg version="1.1" id="Layer_1" xmlns="http://www.w3.org/2000/svg" xmlns:xlink="http://www.w3.org/1999/xlink" x="0px" y="0px"
	 viewBox="0 0 512 512" style="enable-background:new 0 0 512 512;" xml:space="preserve">
<g>
	<g>
		<g>
			<path d="M431.68,290.734L192.805,51.858c-3.905-3.903-10.235-3.904-14.143,0C153.73,76.79,140,109.937,140,145.196
				c0,35.259,13.73,68.406,38.662,93.338l51.971,51.971H86.283C38.706,290.504,0,329.211,0,376.788
				c0,47.576,38.706,86.282,86.283,86.282h339.434c47.577,0,86.283-38.706,86.283-86.283C512,331.217,476.483,293.81,431.68,290.734
				z M192.805,224.391C171.65,203.238,160,175.112,160,145.196c0-26.559,9.181-51.704,26.043-71.815l217.123,217.123H258.918
				L192.805,224.391z M425.717,443.07H86.283C49.734,443.07,20,413.336,20,376.787c0-36.548,29.734-66.282,66.283-66.282h339.434
				v-0.001c4.398,0,8.693,0.441,12.854,1.262c8.858,1.748,17.089,5.259,24.305,10.163C480.438,333.863,492,353.999,492,376.788
				C492,413.336,462.266,443.07,425.717,443.07z"/>
			<path d="M85,349.788c-14.888,0-27,12.112-27,27s12.112,27,27,27s27-12.112,27-27S99.888,349.788,85,349.788z M85,383.788
				c-3.859,0-7-3.141-7-7s3.141-7,7-7s7,3.141,7,7S88.859,383.788,85,383.788z"/>
			<path d="M306.007,248.078c1.946,1.903,4.47,2.852,6.992,2.852c2.596,0,5.19-1.005,7.149-3.007
				c3.862-3.948,3.792-10.279-0.155-14.142l-46-45c-3.949-3.862-10.279-3.792-14.142,0.155c-3.862,3.948-3.792,10.279,0.155,14.142
				L306.007,248.078z"/>
			<path d="M240.071,154.858c-3.906-3.904-10.236-3.904-14.143,0c-3.905,3.905-3.905,10.237,0,14.143l11.001,11
				c1.953,1.952,4.512,2.929,7.071,2.929s5.118-0.977,7.071-2.929c3.905-3.905,3.905-10.237,0-14.143L240.071,154.858z"/>
			<path d="M408.183,403.38c-1.977-1.2-3.81-2.62-5.479-4.222c-0.464-0.445-0.92-0.898-1.357-1.371
				c-2.19-2.373-5.262-3.435-8.248-3.167c-2.12,0.19-4.197,1.045-5.883,2.601c-1.896,1.75-2.951,4.065-3.166,6.448
				c-0.245,2.716,0.604,5.521,2.599,7.683c0.618,0.67,1.269,1.305,1.92,1.94c2.41,2.349,5.043,4.447,7.86,6.282
				c0.46,0.3,0.908,0.618,1.378,0.904c1.621,0.984,3.41,1.452,5.178,1.452c3.38,0,6.678-1.713,8.559-4.813
				c2.301-3.792,1.778-8.502-0.961-11.695C409.912,404.639,409.112,403.944,408.183,403.38z"/>
			<path d="M466,366.429c-5.522,0-10,4.478-10,10c0,14.626-10.34,27.555-24.586,30.741c-5.39,1.205-8.781,6.552-7.576,11.941
				c1.041,4.655,5.171,7.819,9.75,7.819c0.723,0,1.456-0.079,2.191-0.243c23.306-5.212,40.221-26.35,40.221-50.259
				C476,370.907,471.522,366.429,466,366.429z"/>
		</g>
	</g>
</g>
<g>
</g>
<g>
</g>
<g>
</g>
<g>
</g>
<g>
</g>
<g>
</g>
<g>
</g>
<g>
</g>
<g>
</g>
<g>
</g>
<g>
</g>
<g>
</g>
<g>
</g>
<g>
</g>
<g>
</g>
</svg>
