<?xml version="1.0" encoding="iso-8859-1"?>
<!-- Generator: Adobe Illustrator 19.0.0, SVG Export Plug-In . SVG Version: 6.00 Build 0)  -->
<svg version="1.1" id="Layer_1" xmlns="http://www.w3.org/2000/svg" xmlns:xlink="http://www.w3.org/1999/xlink" x="0px" y="0px"
	 viewBox="0 0 512 512" style="enable-background:new 0 0 512 512;" xml:space="preserve">
<g>
	<g>
		<g>
			<path d="M256,187.731c48.845,0,85.333-18.014,85.333-34.133c0-16.119-36.489-34.133-85.333-34.133s-85.333,18.014-85.333,34.133
				C170.667,169.717,207.155,187.731,256,187.731z"/>
			<path d="M256,25.6c-143.548,0-256,56.226-256,128v204.8c0,71.774,112.452,128,256,128h120.516
				c7.091,0,13.235-4.557,15.283-11.341c0.811-2.679,0.708-5.385,0.154-7.962C467.345,443.819,512,403.703,512,358.4V153.6
				C512,81.826,399.548,25.6,256,25.6z M256,102.4c58.377,0,102.4,22.007,102.4,51.2c0,29.193-44.023,51.2-102.4,51.2
				s-102.4-22.007-102.4-51.2C153.6,124.407,197.623,102.4,256,102.4z M256,469.333c-129.519,0-238.933-50.799-238.933-110.933
				V200.439c0.273,0.358,0.623,0.7,0.905,1.058c1.92,2.449,3.951,4.864,6.161,7.228c0.205,0.222,0.384,0.444,0.589,0.666
				c2.389,2.526,4.983,4.983,7.689,7.407c0.666,0.606,1.348,1.195,2.031,1.792c2.79,2.415,5.683,4.796,8.772,7.1
				c0.119,0.085,0.239,0.162,0.358,0.247c3.021,2.236,6.221,4.412,9.515,6.536c0.819,0.538,1.638,1.067,2.475,1.587
				c3.43,2.15,6.955,4.25,10.658,6.281c0.427,0.23,0.879,0.452,1.314,0.691c3.422,1.843,6.963,3.627,10.598,5.367
				c0.913,0.435,1.818,0.879,2.748,1.306c4.011,1.869,8.132,3.678,12.39,5.41c0.691,0.282,1.417,0.546,2.108,0.819
				c3.823,1.519,7.731,2.978,11.725,4.386c0.973,0.341,1.929,0.691,2.91,1.033c4.54,1.545,9.173,3.029,13.918,4.429
				c0.939,0.282,1.894,0.538,2.833,0.811c4.232,1.212,8.542,2.364,12.928,3.465c0.947,0.23,1.869,0.478,2.816,0.708
				c5.001,1.212,10.104,2.33,15.292,3.379c1.143,0.23,2.295,0.444,3.447,0.674c4.676,0.905,9.421,1.749,14.242,2.526
				c0.828,0.128,1.638,0.282,2.475,0.41c5.41,0.836,10.923,1.57,16.495,2.236c1.306,0.154,2.62,0.299,3.934,0.444
				c5.248,0.58,10.556,1.101,15.94,1.527c0.529,0.043,1.05,0.094,1.587,0.137c5.794,0.435,11.682,0.751,17.604,0.998
				c1.417,0.06,2.825,0.111,4.25,0.162c6.016,0.196,12.083,0.341,18.227,0.341h116.873l-14.421,9.617
				c-3.669,2.441-6.212,6.05-7.526,10.129c-0.128,0.393-0.341,0.742-0.444,1.143c-0.154,0.631-0.145,1.297-0.239,1.946
				c-0.137,0.913-0.341,1.818-0.341,2.765v0.009c0,6.434,3.2,12.407,8.55,15.966l24.508,16.341c0.811,0.529,0.973,1.28,0.973,1.818
				c0,0.529-0.162,1.28-0.973,1.818l-24.653,16.427c-5.325,3.541-8.499,9.489-8.499,15.889c0,6.4,3.174,12.339,8.499,15.881
				l24.943,16.631c0.717,0.478,0.87,1.143,0.87,1.621c0,0.469-0.154,1.143-0.862,1.613l-25.387,16.93
				c-5.231,3.482-8.346,9.31-8.346,15.59c0,6.272,3.115,12.109,8.346,15.59l15.01,10.01H256z M494.933,358.4
				c0,38.246-44.194,74.351-115.635,94.694l-11.964-7.97c-0.614-0.41-0.742-0.981-0.742-1.391s0.128-0.981,0.742-1.391l25.395-16.93
				c5.299-3.541,8.457-9.446,8.457-15.812c0-6.366-3.157-12.279-8.465-15.821l-24.943-16.631c-0.742-0.503-0.905-1.195-0.905-1.681
				c0-0.495,0.162-1.186,0.905-1.69l24.644-16.427c5.367-3.575,8.576-9.566,8.576-16.017c0-6.451-3.208-12.442-8.576-16.017
				l-24.508-16.341c-0.785-0.529-0.947-1.254-0.947-1.775c0-0.529,0.162-1.254,0.947-1.775l17.519-11.682
				c5.888-3.925,8.465-11.119,6.417-17.886c-0.461-1.519-1.186-2.876-2.022-4.147c-0.239-0.367-0.503-0.691-0.768-1.032
				c-0.725-0.922-1.527-1.749-2.432-2.483c-0.282-0.23-0.529-0.486-0.828-0.7c-1.135-0.811-2.347-1.502-3.669-1.988
				c0.529-0.145,1.007-0.324,1.527-0.469c5.786-1.63,11.452-3.345,16.93-5.197c0.358-0.12,0.691-0.247,1.041-0.367
				c5.41-1.843,10.658-3.789,15.744-5.828c0.503-0.205,1.024-0.393,1.519-0.597c5.018-2.039,9.839-4.198,14.524-6.434
				c0.768-0.367,1.545-0.725,2.304-1.092c4.514-2.21,8.849-4.497,13.013-6.869c0.751-0.427,1.493-0.853,2.236-1.289
				c4.13-2.415,8.115-4.898,11.878-7.475c0.538-0.367,1.041-0.742,1.57-1.109c3.891-2.722,7.62-5.504,11.085-8.38
				c0.068-0.051,0.128-0.111,0.188-0.171c3.422-2.859,6.579-5.803,9.557-8.815c0.384-0.384,0.794-0.759,1.169-1.152
				c2.807-2.91,5.367-5.897,7.74-8.934c0.239-0.299,0.546-0.58,0.777-0.887V358.4z"/>
		</g>
	</g>
</g>
<g>
</g>
<g>
</g>
<g>
</g>
<g>
</g>
<g>
</g>
<g>
</g>
<g>
</g>
<g>
</g>
<g>
</g>
<g>
</g>
<g>
</g>
<g>
</g>
<g>
</g>
<g>
</g>
<g>
</g>
</svg>
